<?xml version="1.0" standalone="no"?>
<!DOCTYPE svg PUBLIC "-//W3C//DTD SVG 20010904//EN"
 "http://www.w3.org/TR/2001/REC-SVG-20010904/DTD/svg10.dtd">
<svg version="1.0" xmlns="http://www.w3.org/2000/svg"
 width="576.000000pt" height="576.000000pt" viewBox="0 0 576.000000 576.000000"
 preserveAspectRatio="xMidYMid meet">
<metadata>
Created by potrace 1.11, written by Peter Selinger 2001-2013
</metadata>
<g transform="translate(0.000000,576.000000) scale(0.100000,-0.100000)"
fill="#000000" stroke="none">
<path d="M1612 5744 c-350 -51 -642 -201 -888 -457 -194 -200 -314 -427 -376
-710 l-23 -102 0 -1190 c0 -1108 1 -1196 18 -1279 61 -299 191 -541 406 -756
302 -302 679 -450 1146 -450 l90 0 401 -389 c399 -386 429 -411 494 -411 65 0
95 25 493 410 l399 387 162 6 c245 10 421 46 607 126 193 83 323 173 479 330
222 223 360 498 405 809 14 93 15 254 12 1262 -3 1151 -3 1155 -25 1252 -64
281 -184 506 -377 706 -247 258 -538 406 -895 457 -148 21 -2384 20 -2528 -1z
m425 -1256 c114 -42 203 -124 256 -236 l32 -67 3 -273 3 -272 -448 2 -448 3
-3 200 c-4 245 7 338 49 423 58 118 183 214 314 241 69 14 173 5 242 -21z
m1819 21 c140 -25 263 -118 325 -245 l34 -68 3 -278 3 -278 -446 0 -446 0 3
273 3 272 32 68 c61 128 180 225 313 253 71 16 103 16 176 3z m417 -1583 c67
-28 116 -118 103 -189 -9 -50 -70 -137 -168 -242 -282 -301 -637 -492 -1063
-572 -111 -20 -399 -28 -521 -14 -369 43 -705 183 -984 408 -132 107 -324 319
-350 388 -31 82 12 184 95 221 45 20 2840 20 2888 0z"/>
</g>
</svg>
